# xmcd
#
# Track frame offsets:
# 182
# 14805
# 34007
# 51055
# 64895
# 86125
# 99602
# 113435
# 130445
# 145550
#
# Disc length: 2111 seconds
#
#
# Revision: 2
# Processed by: cddbd v1.5.2PL0 Copyright (c) Steve Scherf et al.
# Submitted via: FreeRIP 2.40 
#
DISCID=87083d0a
DTITLE=Sunnyland Slim - Midnight Jump
DYEAR=1969
DGENRE=Blues
TTITLE0=Layin' In My Cell, Sleepin'
TTITLE1=I Am The Blues
TTITLE2=Sunnyland Special
TTITLE3=Heartache
TTITLE4=Lowland Blues
TTITLE5=Stepmother
TTITLE6=Get to My Baby
TTITLE7=Stella Mae
TTITLE8=Midnight Jump
TTITLE9=Depression BLues
EXTD=1969\nWillie Dixon - Bass\nJohnny Shines - Guitar\nClifton James - Drums\nWlater 'shakey' Horton - Harmonica\n\n\nsubmitted by Stamppot
EXTT0=
EXTT1=
EXTT2=
EXTT3=
EXTT4=
EXTT5=
EXTT6=
EXTT7=
EXTT8=
EXTT9=
PLAYORDER=
